<svg width="288" height="289" viewBox="0 0 288 289" xmlns="http://www.w3.org/2000/svg"><path d="M89.4 198.8l11 2.2v5.6a887.18 887.18 0 0 0-21.3-.5c-6.467-.067-11.767-.1-15.9-.1-4 0-8.433.033-13.3.1-4.867.067-9.5.233-13.9.5v-5.2l12.2-2.4c2.267-.4 4.133-1.2 5.6-2.4 1.467-1.2 2.2-2.667 2.2-4.4v-31.4c.133-1.467-.167-3.033-.9-4.7a57.126 57.126 0 0 0-2.7-5.3l-30.8-51c-2.533-4.267-4.867-7.367-7-9.3-2.133-1.933-4.067-3.033-5.8-3.3L0 86v-5.6c2.533.4 10.8.6 24.8.6h10.5c3.533 0 6.9-.033 10.1-.1 3.2-.067 6.067-.133 8.6-.2 2.533-.067 4.467-.167 5.8-.3V86l-6.6 1.8c-3.6.667-5.4 1.933-5.4 3.8 0 .8.267 1.533.8 2.2l29 49.4c4.4-7.333 8.8-14.633 13.2-21.9 4.4-7.267 8.867-14.567 13.4-21.9.933-1.467 1.567-2.767 1.9-3.9.333-1.133.5-2.167.5-3.1 0-2.133-1.667-3.6-5-4.4l-9.4-2v-5.6c1.2.4 7.733.6 19.6.6 6 0 10.9-.067 14.7-.2 3.8-.133 6.433-.333 7.9-.6v5.6l-6.8 1.6c-2 .533-4.533 1.967-7.6 4.3-3.067 2.333-6.2 6.3-9.4 11.9l-26.2 42.8c-1.067 1.467-1.8 3.2-2.2 5.2-.4 2-.6 5.133-.6 9.4v30.8c0 3.867 2.6 6.2 7.8 7zm80.8-9c0 3.333.4 5.567 1.2 6.7.8 1.133 2.467 1.833 5 2.1l15.8 2v6c-8-.4-16-.6-24-.6s-17.267.2-27.8.6v-6l11-2c4.533-.8 7.433-1.733 8.7-2.8 1.267-1.067 1.9-3.067 1.9-6v-80.6c0-6.133-.667-10.7-2-13.7s-3.867-4.833-7.6-5.5l-11.8-1.8V81h36.1c1.933 0 3.6.133 5 .4s2.633.767 3.7 1.5c1.067.733 2.333 1.833 3.8 3.3l74.2 78.4V99.2c0-3.6-.567-6.167-1.7-7.7-1.133-1.533-2.967-2.433-5.5-2.7l-15-2v-6.4c3.733.4 10.933.6 21.6.6 5.333 0 10.367-.033 15.1-.1 4.733-.067 8.033-.233 9.9-.5v6.4l-11.8.8c-2.267.267-3.633 1.367-4.1 3.3-.467 1.933-.7 4.7-.7 8.3v109.4h-4.8l-96.2-102.4v83.6z" fill="#292A33" fill-rule="nonzero"/></svg>