<svg class="icon" viewBox="0 0 1024 1024" xmlns="http://www.w3.org/2000/svg" width="200" height="200"><path d="M206.061 537.07L55.33 260.363h172.578l56.07 102.673 55.34-102.673h172.579L361.163 537.07v208.987H206.061V537.07zm87.382 150.733V513.768l106.314-195.151h-22.574l-93.207 172.578-93.935-172.578h-21.845l105.586 195.151v174.035h19.66zm229.376-427.44h127.43l133.985 187.141V260.363h152.19v485.694h-128.16L675.008 559.644v186.413h-152.19V260.363zm86.653 427.44V351.385L849.77 687.803h18.933V318.617H849.77v336.418L609.472 318.617h-18.933v369.186h18.933z" fill="#3981E6"/></svg>